<svg xmlns="http://www.w3.org/2000/svg" viewBox="0 0 800 520" role="img" aria-label="Children reading books in classroom">
  <rect width="800" height="520" fill="#eef8ff"/>
  <rect x="56" y="58" width="688" height="404" rx="24" fill="#ffffff"/>
  <rect x="90" y="92" width="620" height="50" rx="14" fill="#d6eef8"/>
  <rect x="118" y="310" width="560" height="84" rx="20" fill="#cde4f0"/>

  <g transform="translate(220 258)">
    <circle cx="0" cy="0" r="36" fill="#f3c7a3"/>
    <rect x="-34" y="42" width="68" height="94" rx="22" fill="#0c7b93"/>
    <rect x="-30" y="138" width="24" height="66" rx="10" fill="#3f5a74"/>
    <rect x="6" y="138" width="24" height="66" rx="10" fill="#3f5a74"/>
    <rect x="-76" y="84" width="50" height="24" rx="8" fill="#f3c7a3"/>
    <rect x="26" y="84" width="50" height="24" rx="8" fill="#f3c7a3"/>
    <circle cx="-12" cy="-8" r="4" fill="#2d2d2d"/>
    <circle cx="12" cy="-8" r="4" fill="#2d2d2d"/>
    <path d="M -10 16 Q 0 26 10 16" stroke="#8b4d3e" stroke-width="3.5" fill="none"/>
  </g>

  <g transform="translate(400 248)">
    <circle cx="0" cy="0" r="34" fill="#efc29f"/>
    <rect x="-30" y="40" width="60" height="90" rx="20" fill="#f2a541"/>
    <rect x="-26" y="130" width="22" height="64" rx="10" fill="#425873"/>
    <rect x="4" y="130" width="22" height="64" rx="10" fill="#425873"/>
    <circle cx="-11" cy="-8" r="4" fill="#2d2d2d"/>
    <circle cx="11" cy="-8" r="4" fill="#2d2d2d"/>
    <path d="M -9 15 Q 0 24 9 15" stroke="#8b4d3e" stroke-width="3.5" fill="none"/>
  </g>

  <g transform="translate(570 260)">
    <circle cx="0" cy="0" r="35" fill="#f2c6a3"/>
    <rect x="-33" y="42" width="66" height="95" rx="22" fill="#5fb8ce"/>
    <rect x="-28" y="138" width="24" height="64" rx="10" fill="#455f79"/>
    <rect x="4" y="138" width="24" height="64" rx="10" fill="#455f79"/>
    <circle cx="-11" cy="-8" r="4" fill="#2d2d2d"/>
    <circle cx="11" cy="-8" r="4" fill="#2d2d2d"/>
    <path d="M -9 16 Q 0 26 9 16" stroke="#8b4d3e" stroke-width="3.5" fill="none"/>
  </g>

  <rect x="196" y="338" width="108" height="12" rx="6" fill="#ffffff"/>
  <rect x="365" y="338" width="70" height="12" rx="6" fill="#ffffff"/>
  <rect x="534" y="338" width="80" height="12" rx="6" fill="#ffffff"/>
</svg>
