<svg xmlns="http://www.w3.org/2000/svg" viewBox="0 0 800 520" role="img" aria-label="Children painting and creating art">
  <rect width="800" height="520" fill="#fff5ea"/>
  <rect x="56" y="58" width="688" height="404" rx="24" fill="#ffffff"/>
  <rect x="92" y="100" width="220" height="150" rx="16" fill="#ffe0ba"/>
  <circle cx="160" cy="152" r="24" fill="#f2a541"/>
  <circle cx="224" cy="184" r="18" fill="#0c7b93"/>
  <circle cx="270" cy="136" r="14" fill="#0d5f75"/>

  <g transform="translate(380 255)">
    <circle cx="0" cy="0" r="36" fill="#f3c6a2"/>
    <rect x="-34" y="44" width="68" height="96" rx="22" fill="#0d5f75"/>
    <rect x="-28" y="140" width="22" height="64" rx="10" fill="#415b74"/>
    <rect x="6" y="140" width="22" height="64" rx="10" fill="#415b74"/>
    <rect x="32" y="86" width="64" height="20" rx="8" fill="#f3c6a2"/>
    <circle cx="-12" cy="-8" r="4" fill="#2e2e2e"/>
    <circle cx="12" cy="-8" r="4" fill="#2e2e2e"/>
    <path d="M -10 16 Q 0 28 10 16" stroke="#8b4d3e" stroke-width="3.5" fill="none"/>
  </g>

  <g transform="translate(560 265)">
    <circle cx="0" cy="0" r="34" fill="#efc19e"/>
    <rect x="-30" y="42" width="60" height="92" rx="20" fill="#5db4c9"/>
    <rect x="-24" y="134" width="20" height="64" rx="10" fill="#475f78"/>
    <rect x="4" y="134" width="20" height="64" rx="10" fill="#475f78"/>
    <rect x="-92" y="84" width="62" height="20" rx="8" fill="#efc19e"/>
    <circle cx="-11" cy="-8" r="4" fill="#2e2e2e"/>
    <circle cx="11" cy="-8" r="4" fill="#2e2e2e"/>
    <path d="M -9 15 Q 0 24 9 15" stroke="#8b4d3e" stroke-width="3.5" fill="none"/>
  </g>

  <rect x="332" y="340" width="276" height="74" rx="18" fill="#d7ebf4"/>
  <rect x="360" y="360" width="76" height="14" rx="7" fill="#ffffff"/>
  <rect x="454" y="360" width="64" height="14" rx="7" fill="#ffffff"/>
  <rect x="532" y="360" width="54" height="14" rx="7" fill="#ffffff"/>
</svg>
